<svg xmlns="http://www.w3.org/2000/svg" version="1.1" xmlns:xlink="http://www.w3.org/1999/xlink" xmlns:svgjs="http://svgjs.com/svgjs" width="1440" height="560" preserveAspectRatio="none" viewBox="0 0 1440 560"><g mask="url(&quot;#SvgjsMask1019&quot;)" fill="none"><path d="M699.76 575.3C850.19 539.8 910.42 139.2 1136.07 137.26 1361.72 135.32 1451.74 339.29 1572.38 344.46" stroke="rgba(125, 162, 169, 0.53)" stroke-width="2"></path><path d="M369.94 631.91C526.17 622.87 620.2 347.98 922.15 337.09 1224.09 326.2 1327.89 143.97 1474.35 141.09" stroke="rgba(125, 162, 169, 0.53)" stroke-width="2"></path><path d="M59.97 603.04C272.96 581.26 409.76 124.3 769.52 123.47 1129.28 122.64 1291.77 361.02 1479.07 364.27" stroke="rgba(125, 162, 169, 0.53)" stroke-width="2"></path><path d="M319.62 578.75C481.92 532.52 521.14 87.88 771.14 76.97 1021.14 66.06 996.9 146.97 1222.65 146.97 1448.41 146.97 1559.94 77.18 1674.17 76.97" stroke="rgba(125, 162, 169, 0.53)" stroke-width="2"></path><path d="M164.88 670.69C357.81 665.75 498.55 399.04 883.79 389.49 1269.04 379.94 1410.39 119.7 1602.71 115.09" stroke="rgba(125, 162, 169, 0.53)" stroke-width="2"></path></g><defs><mask id="SvgjsMask1019"><rect width="1440" height="560" fill="#ffffff"></rect></mask></defs></svg>